<svg width="332" height="157" viewBox="0 0 332 157" fill="none" xmlns="http://www.w3.org/2000/svg">
<path d="M36.0673 50.1475C34.3994 71.3534 34.6376 77.7866 27.2513 102.09C17.7642 133.306 15.8144 140.451 15.0996 153.794" stroke="#0E1A58" stroke-width="5" stroke-linecap="round"/>
<path d="M3.42448 32.0391C3.19965 29.484 3.42452 27.7502 4.13931 26.7972C17.2441 4.63814 115.649 -7.03702 150.436 14.1689C167.592 24.6267 171.166 42.5229 155.678 56.819C136.14 76.1188 54.6523 97.5629 4.61582 89.9384C1.88673 89.197 2.94797 86.6026 5.33064 87.5557C27.7279 100.899 38.9265 112.097 57.7498 124.964C76.573 137.83 94.6814 146.17 120.891 153.794" stroke="#0E1A58" stroke-width="5" stroke-linecap="round"/>
<path d="M121.606 116.148C119.223 119.245 118.985 139.26 116.364 141.404" stroke="#0E1A58" stroke-width="5" stroke-linecap="round"/>
<path d="M127.252 103.226C127.261 103.298 127.212 103.627 126.731 104.066C126.521 104.258 126.285 104.415 126.066 104.518C125.959 104.569 125.867 104.602 125.795 104.621C125.726 104.639 125.691 104.64 125.688 104.641C125.688 104.641 125.688 104.641 125.688 104.641C125.266 104.641 125.019 104.508 124.808 104.277C124.55 103.994 124.29 103.492 124.092 102.684C124.037 102.464 124.063 102.354 124.08 102.307C124.098 102.253 124.144 102.168 124.275 102.056C124.554 101.819 125.074 101.589 125.791 101.451C126.071 101.481 126.371 101.636 126.66 101.962C126.995 102.339 127.204 102.832 127.252 103.226Z" stroke="#0E1A58" stroke-width="3"/>
<path d="M162.35 121.39C163.541 119.484 162.35 116.505 160.205 115.433C157.823 114.242 136.378 121.39 136.378 127.585C136.378 131.874 150.281 137.138 150.913 140.928C151.389 143.787 136.378 152.365 125.418 142.119" stroke="#0E1A58" stroke-width="5" stroke-linecap="round"/>
<path d="M185.541 82C187.208 98.9171 167.432 138.708 169.1 146.571C169.1 148.715 191.736 129.415 196.501 127.748C196.501 127.748 197.951 126.798 197.692 135.61C197.454 143.712 200.79 143.712 200.79 143.712C201.505 143.473 204.364 142.997 205.793 141.091" stroke="#0E1A58" stroke-width="5" stroke-linecap="round"/>
<path d="M248.518 141.747C245.421 144.129 241.609 143.891 239.941 143.653C238.511 143.176 238.988 140.794 239.941 134.837M239.941 134.837C240.655 132.454 241.609 128.404 241.847 125.068C241.847 121.97 238.034 119.572 233.507 120.064C222.547 121.256 210.634 145.082 216.59 146.989C223.262 149.848 237.796 137.696 239.941 134.837Z" stroke="#0E1A58" stroke-width="5" stroke-linecap="round"/>
<path d="M270.122 83C268.46 83.4775 267.948 83.8984 267.739 84.9061C264.193 105.42 257.255 136.61 257.732 137.325C258.208 138.04 259.4 137.325 259.4 137.325M259.4 137.325C259.4 137.325 277.032 123.267 282.512 121.123C287.992 118.979 290.136 136.134 280.606 142.567C272.504 148.524 264.165 148.762 262.021 139.231C261.782 137.087 259.4 137.455 259.4 137.325Z" stroke="#0E1A58" stroke-width="5" stroke-linecap="round"/>
<path d="M307.409 85.643C307.885 95.6503 290.968 148.546 296.449 144.972C301.929 141.398 319.561 132.105 319.561 130.914C319.561 129.723 323.85 146.64 329.091 146.64" stroke="#0E1A58" stroke-width="5" stroke-linecap="round"/>
</svg>
